<?xml version="1.0" standalone="no"?>
<!DOCTYPE svg PUBLIC "-//W3C//DTD SVG 20010904//EN"
 "http://www.w3.org/TR/2001/REC-SVG-20010904/DTD/svg10.dtd">
<svg version="1.0" xmlns="http://www.w3.org/2000/svg"
 width="580.000000pt" height="580.000000pt" viewBox="0 0 580.000000 580.000000"
 preserveAspectRatio="xMidYMid meet">
<metadata>
Created by potrace 1.14, written by Peter Selinger 2001-2017
</metadata>
<g transform="translate(0.000000,580.000000) scale(0.100000,-0.100000)"
fill="#000000" stroke="none">
<path d="M2670 5769 c-19 -5 -39 -11 -45 -12 -28 -8 -146 -74 -191 -107 -52
-39 -56 -43 -115 -98 -25 -22 -48 -34 -76 -37 -172 -18 -353 -93 -636 -263
-181 -110 -279 -166 -287 -164 -14 4 -131 -78 -173 -122 -71 -73 -108 -154
-112 -247 -1 -19 -10 -49 -21 -65 -20 -30 -44 -94 -65 -174 -18 -71 -21 -91
-23 -165 -3 -62 2 -94 21 -145 3 -8 7 -19 9 -25 1 -5 12 -32 24 -59 20 -43 22
-69 25 -230 4 -194 12 -394 20 -491 3 -33 7 -89 10 -125 7 -105 16 -202 20
-240 3 -19 7 -60 10 -90 6 -56 9 -85 21 -175 4 -27 8 -59 9 -70 1 -11 5 -46 9
-77 10 -74 11 -73 -23 -70 -39 4 -84 -20 -116 -62 -47 -62 -60 -130 -60 -306
1 -136 6 -184 30 -305 52 -255 150 -404 266 -405 25 0 28 -5 49 -87 12 -49 23
-95 25 -103 9 -44 79 -220 118 -297 143 -285 317 -487 562 -655 125 -85 310
-173 430 -204 6 -2 35 -10 65 -19 30 -8 70 -18 89 -21 18 -3 43 -8 55 -10 93
-19 393 -25 516 -11 268 31 593 169 805 340 52 42 192 181 235 233 59 71 90
113 90 123 0 5 4 11 8 13 4 2 28 37 53 78 88 147 156 311 204 492 l32 122 52
12 c66 15 118 63 161 151 29 59 65 164 76 223 2 14 7 36 9 50 12 59 14 75 21
138 17 164 6 320 -29 403 -17 42 -72 99 -96 99 -29 0 -40 19 -30 53 4 18 11
52 14 77 3 25 7 52 10 60 2 8 6 40 9 70 3 30 8 66 11 80 3 14 8 54 11 90 3 36
7 83 9 105 1 22 6 121 10 220 3 99 8 221 10 270 2 50 6 101 10 115 8 31 18
101 31 210 8 70 10 370 3 420 -4 25 -10 65 -13 90 -4 25 -8 52 -9 60 -49 246
-142 437 -279 573 l-59 58 39 47 c83 100 102 179 60 254 -27 48 -84 83 -155
96 -62 11 -106 -4 -141 -48 -13 -17 -27 -30 -31 -30 -4 0 -54 46 -112 103 -58
56 -125 115 -150 132 -24 16 -46 32 -49 35 -23 24 -165 85 -230 100 -19 5 -46
11 -60 14 -54 14 -219 18 -290 7 -89 -13 -97 -14 -174 -34 -57 -15 -63 -15
-160 10 -109 28 -282 39 -346 22z m260 -165 c19 -3 74 -19 121 -35 105 -35
110 -35 146 -5 25 20 47 28 128 43 50 9 238 10 272 2 21 -5 51 -12 67 -14 39
-6 144 -56 203 -96 27 -18 92 -76 147 -129 54 -52 104 -100 110 -105 26 -24
93 -45 131 -41 22 2 48 4 57 5 10 0 35 16 56 35 25 23 42 32 51 26 11 -6 10
-14 -7 -41 -22 -35 -75 -90 -103 -105 -17 -9 -71 -52 -118 -92 -14 -12 -36
-25 -48 -28 -13 -4 -23 -10 -23 -15 0 -5 -8 -9 -18 -9 -10 0 -22 -4 -27 -9
-29 -28 -217 -64 -330 -64 -62 -1 -194 11 -205 18 -15 9 -83 17 -105 11 -33
-8 -60 -70 -46 -105 7 -14 20 -32 30 -38 18 -11 106 -30 186 -40 91 -11 320
-3 345 12 4 2 21 7 40 10 86 15 242 84 309 136 13 11 30 19 38 19 18 0 105
-82 148 -139 68 -94 143 -276 160 -391 4 -25 8 -47 10 -51 8 -12 19 -179 18
-289 0 -147 -9 -253 -29 -360 -9 -47 -18 -125 -19 -175 -6 -167 -16 -420 -19
-460 -9 -108 -17 -202 -21 -220 -2 -11 -4 -32 -4 -47 -1 -36 -16 -36 -17 0 -1
24 -5 58 -20 147 -5 31 -31 154 -40 190 -3 11 -7 30 -10 42 -2 12 -8 33 -13
45 -5 13 -9 28 -10 33 -1 11 -19 72 -28 95 -3 8 -7 20 -9 25 -8 32 -72 170
-106 228 -101 173 -218 276 -373 328 -70 24 -95 27 -205 27 -69 0 -147 -4
-175 -9 -112 -19 -261 -24 -690 -24 -429 0 -555 4 -690 24 -33 5 -118 8 -190
7 -107 -2 -142 -6 -200 -25 -241 -82 -411 -316 -525 -721 -22 -77 -25 -89 -37
-150 -4 -19 -8 -38 -9 -42 -1 -5 -2 -17 -3 -28 -1 -28 -19 -25 -18 3 0 12 -3
60 -7 107 -5 47 -9 108 -11 135 -2 28 -6 86 -9 130 -12 164 -18 305 -20 495
-3 183 -5 199 -28 250 -60 135 -64 162 -38 283 20 92 44 150 84 204 19 26 22
39 17 66 -5 18 -6 43 -4 55 10 67 87 156 166 190 20 9 37 20 37 24 0 5 8 8 18
8 10 0 22 4 27 9 6 5 30 19 55 33 25 13 89 50 143 83 162 99 187 113 303 170
125 61 231 94 328 100 78 5 88 10 144 68 79 83 187 157 267 183 39 13 163 12
245 -2z m-710 -1799 c65 -15 231 -20 650 -20 432 0 594 5 704 24 55 9 278 8
316 -2 85 -23 195 -107 259 -201 96 -139 182 -366 217 -571 3 -16 9 -46 14
-65 5 -19 12 -59 15 -87 l6 -53 -48 46 c-139 131 -320 203 -514 202 -67 0
-102 -4 -185 -22 -50 -10 -163 -62 -219 -99 -83 -56 -176 -153 -225 -236 -41
-69 -89 -189 -90 -223 0 -22 5 -23 -84 7 -124 41 -225 37 -341 -14 l-42 -18
-13 51 c-41 166 -158 329 -305 429 -59 41 -167 91 -215 101 -14 3 -36 8 -50
11 -14 4 -70 8 -125 11 -122 4 -221 -14 -322 -61 -61 -28 -155 -85 -173 -104
-3 -3 -25 -24 -49 -46 -32 -29 -42 -35 -38 -20 3 11 9 40 12 65 3 25 8 52 10
60 2 8 7 31 10 50 23 143 105 386 168 500 82 150 212 268 316 287 14 2 28 6
30 9 6 6 279 -3 311 -11z m-145 -905 c101 -29 193 -85 273 -168 57 -60 62 -80
10 -40 -18 14 -67 38 -108 53 -63 23 -94 28 -190 30 -211 5 -327 -46 -446
-197 -6 -8 -20 -39 -31 -69 -29 -78 -22 -129 16 -129 25 0 41 22 48 62 17 110
111 201 249 239 63 17 207 20 279 5 95 -20 210 -104 261 -191 83 -142 81 -271
-8 -437 -17 -32 -35 -58 -39 -58 -5 0 -9 -5 -9 -11 0 -21 -110 -118 -173 -153
-136 -76 -279 -92 -452 -52 -19 4 -78 31 -140 63 -16 9 -62 48 -101 87 -178
179 -220 435 -109 663 78 158 244 285 405 310 19 3 37 7 39 9 8 8 187 -5 226
-16z m1935 -5 c191 -58 351 -228 396 -421 70 -305 -111 -609 -414 -693 -84
-23 -235 -22 -313 3 -152 48 -287 162 -353 297 -21 42 -39 83 -40 90 -1 8 -5
28 -9 44 -3 17 -9 51 -12 76 -5 45 -4 47 23 52 25 5 31 13 45 64 8 32 33 83
54 113 86 122 217 181 391 175 102 -3 112 -4 179 -29 96 -34 184 -129 199
-213 9 -50 15 -62 35 -68 13 -4 27 0 39 10 16 15 17 21 6 68 -37 156 -167 272
-341 304 -11 2 -60 6 -110 8 -167 7 -297 -37 -399 -137 -33 -31 -62 -56 -64
-53 -11 10 57 105 117 166 89 88 187 140 299 159 70 11 210 4 272 -15z m-690
-335 c0 -5 -5 -10 -11 -10 -5 0 -7 5 -4 10 3 6 8 10 11 10 2 0 4 -4 4 -10z
m-353 -200 c21 -5 60 -23 87 -38 40 -22 50 -33 53 -57 2 -16 6 -46 9 -65 3
-19 6 -37 6 -40 0 -20 56 -147 89 -203 46 -77 139 -176 212 -226 48 -33 159
-88 193 -96 11 -3 45 -11 77 -19 75 -19 261 -14 337 9 30 9 60 17 65 18 59 13
205 108 275 178 l41 41 -6 -33 c-7 -40 -38 -149 -66 -234 -46 -135 -138 -304
-208 -378 -88 -94 -289 -213 -393 -232 -33 -6 -35 -5 -54 37 -50 113 -212 223
-399 273 -121 32 -198 40 -400 40 -258 0 -384 -20 -536 -85 -121 -51 -204
-121 -260 -218 -34 -57 -36 -57 -117 -31 -100 32 -267 140 -338 219 -74 80
-143 203 -195 343 -30 80 -91 297 -84 297 2 0 23 -19 47 -43 91 -92 185 -147
318 -188 98 -30 292 -33 385 -6 33 10 65 19 70 20 28 6 136 65 182 99 176 129
291 335 302 539 1 9 24 27 54 41 117 57 162 64 254 38z m-1840 -22 c25 -28 35
-65 39 -143 1 -33 5 -100 8 -150 4 -49 8 -144 11 -210 2 -66 7 -145 10 -175 4
-52 4 -54 -11 -35 -33 41 -82 181 -99 282 -34 204 -26 453 15 453 4 0 16 -10
27 -22z m3565 -35 c36 -149 -6 -467 -83 -631 -17 -34 -35 -60 -40 -57 -5 4 -7
10 -5 13 5 9 14 134 21 287 12 273 16 311 36 365 37 98 51 102 71 23z m-1572
-1137 c14 -3 41 -9 60 -12 19 -4 42 -8 50 -9 52 -10 210 -78 210 -90 0 -5 -18
-3 -70 9 -96 21 -244 30 -485 30 -208 0 -335 -5 -405 -18 -14 -2 -44 -7 -67
-10 -22 -3 -53 -8 -67 -12 -43 -11 -29 2 37 34 139 67 281 90 532 87 99 -2
191 -6 205 -9z m-1530 -126 c3 -3 21 -17 40 -30 19 -13 37 -27 40 -30 3 -4 37
-25 75 -48 81 -48 186 -93 232 -99 79 -11 87 -17 121 -83 71 -141 166 -244
271 -294 60 -28 75 -31 161 -31 127 0 180 25 230 108 11 18 20 39 20 48 0 9
10 20 23 26 22 10 131 15 153 6 7 -2 26 -33 44 -68 27 -53 40 -67 83 -91 45
-24 64 -29 141 -30 128 -3 218 36 315 136 39 41 109 145 142 213 13 26 30 47
38 48 139 7 390 141 519 278 40 43 42 44 32 16 -35 -92 -115 -236 -188 -335
-87 -117 -159 -192 -272 -281 -41 -33 -80 -63 -86 -68 -34 -28 -181 -106 -254
-135 -97 -40 -239 -82 -302 -91 -24 -3 -63 -9 -88 -13 -57 -8 -340 -8 -400 0
-55 8 -199 37 -220 44 -8 3 -16 5 -17 5 -13 -3 -184 68 -260 108 -277 146
-521 401 -647 676 -10 22 -28 58 -38 80 l-20 40 53 -50 c29 -27 56 -52 59 -55z
m1610 -114 c14 -2 48 -7 77 -10 73 -9 249 -50 261 -61 3 -3 -53 -110 -70 -131
-40 -50 -106 -108 -137 -122 -47 -20 -119 -26 -154 -13 -19 7 -34 25 -47 55
-42 99 -117 136 -265 132 -131 -4 -192 -39 -233 -137 -23 -52 -37 -59 -115
-55 -69 4 -111 26 -177 96 -55 57 -120 163 -108 175 20 20 202 56 363 71 39 3
72 8 73 10 6 4 503 -5 532 -10z"/>
<path d="M2032 2626 c-80 -26 -141 -80 -182 -163 -33 -66 -33 -178 0 -246 49
-102 139 -165 250 -172 98 -7 162 16 231 85 156 154 108 398 -96 488 -45 20
-153 24 -203 8z m207 -101 c118 -78 137 -239 40 -336 -46 -46 -76 -60 -139
-65 -73 -5 -120 13 -171 65 -70 73 -84 162 -40 250 43 84 111 122 208 116 46
-3 72 -11 102 -30z"/>
<path d="M3573 2619 c-63 -24 -131 -89 -163 -155 -32 -68 -32 -179 0 -247 30
-63 86 -119 151 -150 43 -20 65 -24 123 -22 76 3 85 4 131 26 36 16 124 99
125 117 0 6 5 12 12 12 6 0 9 3 6 6 -4 3 0 22 9 41 20 48 18 134 -4 195 -55
154 -235 235 -390 177z m199 -77 c43 -18 106 -87 117 -130 31 -114 2 -193 -98
-262 -45 -31 -146 -36 -201 -9 -49 24 -105 90 -117 137 -11 44 -9 106 5 143
17 43 73 100 117 119 44 19 132 20 177 2z"/>
<path d="M2599 1727 c-65 -50 -52 -185 25 -262 62 -62 123 -80 266 -80 104 0
121 3 174 28 92 43 133 99 141 193 6 85 -26 134 -87 134 -25 0 -67 -32 -69
-53 -1 -7 -2 -31 -3 -54 -1 -24 -7 -48 -13 -54 -42 -42 -230 -50 -281 -12 -20
15 -27 30 -29 59 -1 22 -2 45 -2 52 -1 7 -12 24 -26 37 -26 27 -70 32 -96 12z"/>
</g>
</svg>
