<svg width="32" height="32" viewBox="0 0 32 32" fill="none" xmlns="http://www.w3.org/2000/svg">
<path d="M19.3333 2.7432V4.2665C19.3333 6.50671 19.3333 7.62682 19.7693 8.48247C20.1528 9.23511 20.7647 9.84704 21.5174 10.2305C22.373 10.6665 23.4931 10.6665 25.7333 10.6665L27.2566 10.6665M19.3333 2.7432C18.8086 2.6665 18.1813 2.6665 17.132 2.6665H14.5333C11.5464 2.6665 10.0529 2.6665 8.91205 3.2478C7.90852 3.75913 7.09262 4.57502 6.5813 5.57855C6 6.71942 6 8.21289 6 11.1998V15.1997M19.3333 2.7432C19.4609 2.76185 19.5825 2.78504 19.7026 2.81386C20.2468 2.94451 20.767 3.16 21.2442 3.45242C21.7824 3.78224 22.2436 4.24345 23.166 5.16586L24.834 6.83381C25.7564 7.75622 26.2176 8.21743 26.5474 8.75565C26.8398 9.23284 27.0553 9.75307 27.186 10.2973C27.2148 10.4173 27.238 10.5389 27.2566 10.6665M27.2566 10.6665C27.3333 11.1912 27.3333 11.8185 27.3333 12.8678V23.9998C27.3333 26.209 25.5425 27.9998 23.3333 27.9998V27.9998M16.6667 18.6665L19.3333 27.9998L22 18.6665M12.3328 26.6665C11.7316 27.4913 10.9082 27.9998 10 27.9998C8.15905 27.9998 6.66667 25.9105 6.66667 23.3332C6.66667 20.7558 8.15905 18.6665 10 18.6665C10.9082 18.6665 11.7316 19.175 12.3328 19.9998" stroke="white" stroke-width="2" stroke-linecap="round" stroke-linejoin="round"/>
</svg>
