<svg width="32" height="32" viewBox="0 0 32 32" fill="none" xmlns="http://www.w3.org/2000/svg">
<path d="M14.667 8.00021H18.2576C18.5109 8.00021 18.7423 7.85665 18.8548 7.62972L19.7592 5.80611C19.8965 5.52917 20.2047 5.38372 20.5018 5.46894C21.3756 5.71953 23.2095 6.32409 24.6726 7.33354C29.8246 11.1965 29.3441 19.8531 29.3051 21.6814C29.3027 21.793 29.2742 21.903 29.2192 22.0002C26.5751 26.6669 21.9884 26.6669 21.9884 26.6669L20.4334 23.4319M17.3337 8.00021H13.7496C13.4968 8.00021 13.2658 7.85726 13.153 7.63107L12.242 5.80448C12.1043 5.52835 11.7966 5.38356 11.5 5.4686C10.6267 5.71898 8.79177 6.32364 7.32801 7.33354C2.17606 11.1965 2.65656 19.8531 2.69553 21.6814C2.69791 21.793 2.72641 21.903 2.78143 22.0002C5.42558 26.6669 10.0123 26.6669 10.0123 26.6669L11.5722 23.4314M9.33536 22.6669C10.1349 22.9666 10.8746 23.2215 11.5722 23.4314M22.6721 22.6669C21.8719 22.9669 21.1316 23.2219 20.4334 23.4319M11.5722 23.4314C14.8312 24.4119 17.1747 24.412 20.4334 23.4319M13.3364 16.0002C13.3364 16.7366 12.7393 17.3335 12.0027 17.3335C11.2661 17.3335 10.669 16.7366 10.669 16.0002C10.669 15.2638 11.2661 14.6669 12.0027 14.6669C12.7393 14.6669 13.3364 15.2638 13.3364 16.0002ZM21.3384 16.0002C21.3384 16.7366 20.7413 17.3335 20.0048 17.3335C19.2682 17.3335 18.6711 16.7366 18.6711 16.0002C18.6711 15.2638 19.2682 14.6669 20.0048 14.6669C20.7413 14.6669 21.3384 15.2638 21.3384 16.0002Z" stroke="white" stroke-width="2" stroke-linecap="round" stroke-linejoin="round"/>
</svg>
