<svg viewBox="0 0 41 63" fill="none" xmlns="http://www.w3.org/2000/svg">
<path d="M18.4051 20.5693C17.3149 23.8385 16.7638 27.2611 16.7732 30.7049C16.7732 45.6352 26.8263 57.737 39.2298 57.737M15.061 10.2737C13.9681 16.4659 18.8786 20.5692 18.8786 20.5692C18.8786 20.5692 24.8783 18.4767 25.9712 12.2808C27.064 6.08866 22.1535 1.98535 22.1535 1.98535C22.1535 1.98535 16.1539 4.07789 15.061 10.2737ZM9.49811 47.8721C15.4828 48.4457 18.9591 43.4593 18.9591 43.4593C18.9591 43.4593 16.4473 37.906 10.4609 37.3358C4.47626 36.7623 1 41.7486 1 41.7486C1 41.7486 3.51176 47.3019 9.49811 47.8721ZM4.67584 29.8322C9.14303 34.8452 15.7487 33.3996 15.7487 33.3996C15.7487 33.3996 17.8872 26.9409 13.4168 21.9202C8.94938 16.9109 2.34393 18.3529 2.34393 18.3529C2.34393 18.3529 0.205413 24.8115 4.67584 29.8322ZM18.8418 61.3384C24.4559 59.2012 25.328 53.1987 25.328 53.1987C25.328 53.1987 20.5859 49.3406 14.9717 51.4815C9.35761 53.6186 8.48555 59.6212 8.48555 59.6212C8.48555 59.6212 13.2276 63.4792 18.8418 61.3384Z" stroke="#143642" stroke-width="2" stroke-linecap="round" stroke-linejoin="round"/>
</svg>
