<svg width="32" height="32" viewBox="0 0 32 32" fill="none" xmlns="http://www.w3.org/2000/svg">
<path d="M22.6667 22.6667V18C22.6667 16.1591 21.1743 14.6667 19.3333 14.6667C17.4924 14.6667 16 16.1591 16 18M16 18V22.6667M16 18V14M10.6667 14V22.6667M10.6667 9.33333V9.34667M14.6667 28H17.3333C21.067 28 22.9339 28 24.3599 27.2734C25.6144 26.6342 26.6342 25.6144 27.2734 24.3599C28 22.9339 28 21.067 28 17.3333V14.6667C28 10.933 28 9.06614 27.2734 7.64006C26.6342 6.38565 25.6144 5.36578 24.3599 4.72662C22.9339 4 21.067 4 17.3333 4H14.6667C10.933 4 9.06614 4 7.64006 4.72662C6.38565 5.36578 5.36578 6.38565 4.72662 7.64006C4 9.06614 4 10.933 4 14.6667V17.3333C4 21.067 4 22.9339 4.72662 24.3599C5.36578 25.6144 6.38565 26.6342 7.64006 27.2734C9.06614 28 10.933 28 14.6667 28Z" stroke="white" stroke-width="2" stroke-linecap="round" stroke-linejoin="round"/>
</svg>
