<svg width="32" height="32" viewBox="0 0 32 32" fill="none" xmlns="http://www.w3.org/2000/svg">
<path d="M29.0713 10.3485L21.727 15.0221C19.6516 16.3428 18.6139 17.0031 17.4987 17.2604C16.5127 17.4878 15.4879 17.4878 14.502 17.2604C13.3867 17.0031 12.349 16.3428 10.2736 15.0221L2.92936 10.3485M29.0713 10.3485C29.3337 11.6289 29.3337 13.341 29.3337 15.9997C29.3337 19.7334 29.3337 21.6002 28.607 23.0263C27.9679 24.2807 26.948 25.3006 25.6936 25.9397C24.2675 26.6663 22.4007 26.6663 18.667 26.6663H13.3337C9.59998 26.6663 7.73313 26.6663 6.30706 25.9397C5.05264 25.3006 4.03277 24.2807 3.39362 23.0263C2.66699 21.6002 2.66699 19.7334 2.66699 15.9997C2.66699 13.341 2.66699 11.6289 2.92936 10.3485M29.0713 10.3485C28.9652 9.83077 28.8162 9.38365 28.607 8.97307C27.9679 7.71866 26.948 6.69879 25.6936 6.05963C24.2675 5.33301 22.4007 5.33301 18.667 5.33301H13.3337C9.59998 5.33301 7.73313 5.33301 6.30706 6.05963C5.05264 6.69879 4.03277 7.71866 3.39362 8.97307C3.18441 9.38365 3.03544 9.83077 2.92936 10.3485" stroke="white" stroke-width="2" stroke-linecap="round" stroke-linejoin="round"/>
</svg>
