<svg viewBox="0 0 25 24" fill="none" xmlns="http://www.w3.org/2000/svg">
<path d="M15.91 6.51C13.3271 7.28278 10.9855 8.54266 9.09 10.49M15.9098 17.49C13.3269 16.7172 10.9853 15.4573 9.08984 13.51M21.5 5C21.5 6.65685 20.1569 8 18.5 8C16.8431 8 15.5 6.65685 15.5 5C15.5 3.34315 16.8431 2 18.5 2C20.1569 2 21.5 3.34315 21.5 5ZM9.5 12C9.5 13.6569 8.15685 15 6.5 15C4.84315 15 3.5 13.6569 3.5 12C3.5 10.3431 4.84315 9 6.5 9C8.15685 9 9.5 10.3431 9.5 12ZM21.5 19C21.5 20.6569 20.1569 22 18.5 22C16.8431 22 15.5 20.6569 15.5 19C15.5 17.3431 16.8431 16 18.5 16C20.1569 16 21.5 17.3431 21.5 19Z" stroke="white" stroke-width="2" stroke-linecap="round" stroke-linejoin="round"/>
</svg>
