<svg width="224" height="67" viewBox="0 0 224 67" fill="none" xmlns="http://www.w3.org/2000/svg">
<path d="M33.6922 49.5627C42.4573 49.5627 49.5628 42.4571 49.5628 33.692C49.5628 24.9269 42.4573 17.8214 33.6922 17.8214C24.9271 17.8214 17.8215 24.9269 17.8215 33.692C17.8215 42.4571 24.9271 49.5627 33.6922 49.5627Z" fill="black"/>
<path d="M47.152 31.576C47.152 40.2059 40.1515 47.152 31.576 47.152C23.0006 47.152 16 40.2059 16 31.576C16 22.9462 23.0006 16 31.576 16C40.1515 16 47.152 22.9462 47.152 31.576Z" fill="#E44332" stroke="black" stroke-width="2"/>
<path d="M38.4394 36.4087C37.3801 37.9062 35.8648 39.0208 34.1199 39.5862C32.3749 40.1515 30.4939 40.1373 28.7577 39.5455C27.0215 38.9537 25.5233 37.8162 24.4869 36.3028C23.4505 34.7894 22.9314 32.9813 23.0073 31.1486C23.0831 29.3159 23.7498 27.5569 24.9077 26.1343C26.0656 24.7117 27.6526 23.7018 29.4317 23.2555C31.2109 22.8092 33.0866 22.9503 34.7789 23.6579C36.4712 24.3655 37.8892 25.6015 38.8212 27.1814L31.5 31.5L38.4394 36.4087Z" fill="white"/>
<path d="M69.968 43V38.104H65.648V29.644H70.544V25H65.648V20.644H62.516L59.96 25.144L56.288 26.764V29.644H59.456V35.908C59.456 40.552 61.184 43 66.692 43H69.968ZM82.1442 43.576C89.7762 43.576 92.4762 38.824 92.4762 34C92.4762 29.176 89.7762 24.424 82.1442 24.424C74.5122 24.424 71.8482 29.176 71.8482 34C71.8482 38.86 74.5122 43.576 82.1442 43.576ZM78.0402 34C78.0402 30.4 79.1922 29.248 82.1442 29.248C85.0962 29.248 86.2482 30.4 86.2482 34C86.2482 37.6 85.0962 38.752 82.1442 38.752C79.1922 38.752 78.0402 37.6 78.0402 34ZM107.558 24.424C104.498 24.424 102.446 25.54 101.222 27.448V25H95.0296V50.2H101.222V40.48C102.446 42.424 104.498 43.576 107.558 43.576C113.462 43.576 115.802 39.04 115.802 34.036C115.802 28.852 113.462 24.424 107.558 24.424ZM105.47 38.752C102.302 38.752 101.222 37.204 101.222 34C101.222 30.796 102.302 29.248 105.47 29.248C108.53 29.248 109.61 30.652 109.61 34C109.61 37.348 108.53 38.752 105.47 38.752ZM143.105 24.424C139.829 24.424 137.849 26.008 136.733 28.42C135.833 25.9 133.889 24.424 130.793 24.424C127.697 24.424 125.789 25.828 124.673 28.06V25H118.481V43H124.673V34.54C124.673 31.012 125.825 29.428 128.237 29.428C130.289 29.428 131.189 30.688 131.189 32.992V43H137.273V34.54C137.273 31.012 138.389 29.428 140.837 29.428C142.889 29.428 143.789 30.688 143.789 32.992V43H149.981V32.056C149.981 27.34 147.821 24.424 143.105 24.424ZM158.828 43.468C162.464 43.468 164.696 41.884 165.596 39.256C165.596 40.732 165.704 41.956 165.884 43H171.212C170.996 41.524 170.888 39.94 170.888 38.032V30.868C170.888 26.764 168.08 24.424 162.392 24.424C156.704 24.424 153.392 27.16 153.212 30.976H159.224C159.26 29.392 160.304 28.528 162.464 28.528C164.516 28.528 165.164 29.176 165.164 30.256C165.164 31.192 164.732 31.624 163.076 31.912L159.008 32.632C154.04 33.46 152.852 35.368 152.852 38.248C152.852 41.416 155.228 43.468 158.828 43.468ZM161.168 39.436C159.908 39.436 158.936 38.788 158.936 37.528C158.936 36.304 159.584 35.692 161.312 35.26L162.356 35.008C163.472 34.72 164.3 34.504 165.164 33.856V34.54C165.164 37.78 163.508 39.436 161.168 39.436ZM186.37 43V38.104H182.05V29.644H186.946V25H182.05V20.644H178.918L176.362 25.144L172.69 26.764V29.644H175.858V35.908C175.858 40.552 177.586 43 183.094 43H186.37ZM198.331 39.436C196.027 39.436 194.623 38.464 194.263 35.584H207.763C207.835 35.188 207.871 34.648 207.871 34.072C207.871 29.068 205.531 24.424 198.187 24.424C191.275 24.424 188.25 28.744 188.25 33.964C188.25 38.896 190.843 43.576 198.187 43.576C204.739 43.576 207.187 40.66 207.799 37.564H201.787C201.283 38.644 200.167 39.436 198.331 39.436ZM198.259 28.492C200.671 28.492 201.787 29.716 202.003 31.984H194.335C194.731 29.392 196.027 28.492 198.259 28.492Z" fill="black"/>
</svg>
