<svg viewBox="0 0 204 206" fill="none" xmlns="http://www.w3.org/2000/svg">
<g opacity=".6">
<path d="M67.0006 130C64.5006 130 64.0006 123 63.0006 120.5M67.0006 130C64.501 129.999 64.0005 123 63.0006 120.5M67.0006 130C69.5001 129.999 69.9995 123 70.9994 120.5M63.0006 120.5C62.0006 118 61.0006 123 52.0006 123C46.5006 123 42.5312 120.428 43.0006 116C43.3647 112.565 46.0683 110.391 49.5006 110C52.7986 109.624 53.6839 114.136 57.0006 114C62 113.794 65.0006 110.5 65.0006 106.5C65.0006 104 62.9883 101.72 63.0006 98.5C63.0154 94.6095 65.4723 92.8905 65.5 89C65.5373 83.7539 60.5792 77.4775 58.7056 75.2944M58.0006 74.5C58.0006 74.5 58.2695 74.7863 58.7056 75.2944M66.9994 130C69.4994 130 69.9994 123 70.9994 120.5M70.9994 120.5C71.9994 118 72.9994 123 81.9994 123C87.4994 123 91.4688 120.428 90.9994 116C90.6353 112.565 87.9317 110.391 84.4994 110C81.2014 109.624 80.3161 114.136 76.9994 114C72 113.794 68.9994 110.5 68.9994 106.5C68.9994 104 71.0117 101.72 70.9994 98.5C70.9846 94.6095 68.5277 92.8905 68.5 89C68.4627 83.7539 73.4209 77.4774 75.2944 75.2944M75.9994 74.5C75.9994 74.5 75.7305 74.7863 75.2944 75.2944M67.0006 4C64.501 4.00104 64.0005 11.0002 63.0006 13.5C62.0006 16 61.0006 11 52.0006 11C46.5006 11 42.5312 13.5721 43.0006 18C43.3647 21.4353 46.0683 23.6085 49.5006 24C52.7986 24.3762 53.6839 19.8636 57.0006 20C62 20.2057 65.0006 23.5 65.0006 27.5C65.0006 30 62.9883 32.2797 63.0006 35.5C63.0154 39.3905 65.4723 41.1095 65.5 45C65.5373 50.2461 60.5791 56.5226 58.7056 58.7056M67.0006 4H66.9994M67.0006 4C69.5001 4.00104 69.9995 11.0002 70.9994 13.5C71.9994 16 72.9994 11 81.9994 11C87.4994 11 91.4688 13.5721 90.9994 18C90.6353 21.4353 87.9317 23.6085 84.4994 24C81.2014 24.3762 80.3161 19.8636 76.9994 20C72 20.2057 68.9994 23.5 68.9994 27.5C68.9994 30 71.0117 32.2797 70.9994 35.5C70.9846 39.3905 68.5277 41.1095 68.5 45C68.4627 50.2461 73.4209 56.5226 75.2944 58.7056M58.0006 59.5C58.0006 59.5 58.2695 59.2137 58.7056 58.7056M75.9994 59.5C75.9994 59.5 75.7305 59.2137 75.2944 58.7056M130 66.9994C130 69.4994 123 69.9994 120.5 70.9994M130 66.9994C129.999 64.4999 123 64.0005 120.5 63.0006M130 66.9994C129.999 69.499 123 69.9995 120.5 70.9994M120.5 70.9994C118 71.9994 123 72.9994 123 81.9994C123 87.4994 120.428 91.4688 116 90.9994C112.565 90.6353 110.391 87.9317 110 84.4994C109.624 81.2014 114.136 80.3161 114 76.9994C113.794 72 110.5 68.9994 106.5 68.9994C104 68.9994 101.72 71.0117 98.5 70.9994C94.6095 70.9846 92.8905 68.5277 89 68.5C83.7539 68.4627 77.4774 73.4209 75.2944 75.2944M74.5 75.9994C74.5 75.9994 74.7863 75.7305 75.2944 75.2944M130 67.0006C130 64.5006 123 64.0006 120.5 63.0006M120.5 63.0006C118 62.0006 123 61.0006 123 52.0006C123 46.5006 120.428 42.5312 116 43.0006C112.565 43.3647 110.391 46.0683 110 49.5006C109.624 52.7986 114.136 53.6839 114 57.0006C113.794 62 110.5 65.0006 106.5 65.0006C104 65.0006 101.72 62.9883 98.5 63.0006C94.6095 63.0154 92.8905 65.4723 89 65.5C83.7539 65.5373 77.4774 60.5791 75.2944 58.7056M74.5 58.0006C74.5 58.0006 74.7863 58.2695 75.2944 58.7056M4 66.9994C4.00104 69.499 11.0002 69.9995 13.5 70.9994C16 71.9994 11 72.9994 11 81.9994C11 87.4994 13.5721 91.4688 18 90.9994C21.4353 90.6353 23.6085 87.9317 24 84.4994C24.3762 81.2014 19.8636 80.3161 20 76.9994C20.2057 72 23.5 68.9994 27.5 68.9994C30 68.9994 32.2797 71.0117 35.5 70.9994C39.3905 70.9846 41.1095 68.5277 45 68.5C50.2461 68.4627 56.5226 73.4209 58.7056 75.2944M4 66.9994V67.0006M4 66.9994C4.00104 64.4999 11.0002 64.0005 13.5 63.0006C16 62.0006 11 61.0006 11 52.0006C11 46.5006 13.5721 42.5312 18 43.0006C21.4353 43.3647 23.6085 46.0683 24 49.5006C24.3762 52.7986 19.8636 53.6839 20 57.0006C20.2057 62 23.5 65.0006 27.5 65.0006C30 65.0006 32.2797 62.9883 35.5 63.0006C39.3905 63.0154 41.1095 65.4723 45 65.5C50.2461 65.5373 56.5226 60.5791 58.7056 58.7056M59.5 75.9994C59.5 75.9994 59.2137 75.7305 58.7056 75.2944M59.5 58.0006C59.5 58.0006 59.2137 58.2695 58.7056 58.7056M84.211 49.248C84.3188 49.4254 88.8058 56.7083 96.709 53.7447C94.2345 46.8139 84.4084 49.1956 84.212 49.244M84.211 49.248C84.2113 49.2468 84.2116 49.2455 84.212 49.244M84.211 49.248C84.2097 49.2534 84.209 49.2561 84.209 49.2561C84.209 49.2561 76.709 44.7565 79.709 36.7561C86.5682 39.205 84.3063 48.8545 84.212 49.244M84.211 49.248C84.2096 49.2458 84.209 49.2447 84.209 49.2447C84.209 49.2447 84.21 49.2445 84.212 49.244M48.9919 49.4985C49.1692 49.3907 56.4522 44.9037 53.4886 37.0005C46.5578 39.475 48.9395 49.301 48.9879 49.4975M48.9919 49.4985C48.9907 49.4982 48.9893 49.4979 48.9879 49.4975M48.9919 49.4985C48.9973 49.4998 49 49.5005 49 49.5005C49 49.5005 44.5004 57.0005 36.5 54.0005C38.9489 47.1412 48.5985 49.4032 48.9879 49.4975M48.9919 49.4985C48.9897 49.4998 48.9886 49.5005 48.9886 49.5005C48.9886 49.5005 48.9884 49.4995 48.9879 49.4975M49.4919 85.7102C49.6692 85.8181 56.9522 90.305 53.9886 98.2083C47.0576 95.7337 49.4396 85.9071 49.4879 85.7112M49.4919 85.7102C49.4907 85.7105 49.4893 85.7109 49.4879 85.7112M49.4919 85.7102C49.4973 85.7089 49.5 85.7083 49.5 85.7083C49.5 85.7083 45.0004 78.2083 37 81.2083C39.449 88.0675 49.0985 85.8055 49.4879 85.7112M49.4919 85.7102C49.4897 85.7089 49.4886 85.7083 49.4886 85.7083C49.4886 85.7083 49.4884 85.7092 49.4879 85.7112M84.211 85.9607C84.3188 85.7834 88.8058 78.5005 96.709 81.464C94.2345 88.3948 84.4084 86.0131 84.212 85.9648M84.211 85.9607C84.2113 85.962 84.2116 85.9633 84.212 85.9648M84.211 85.9607C84.2097 85.9554 84.209 85.9526 84.209 85.9526C84.209 85.9526 76.709 90.4523 79.709 98.4526C86.5682 96.0037 84.3063 86.3542 84.212 85.9648M84.211 85.9607C84.2096 85.9629 84.209 85.964 84.209 85.964C84.209 85.964 84.21 85.9643 84.212 85.9648" stroke="#d5c990"/>
<g opacity="0.4">
<path d="M97.7092 34.2559C97.2092 35.7559 94.9585 35.4235 93.2092 37.7559C92.2321 39.0588 93.1646 39.7252 93.9334 40.0314C94.2395 40.8003 94.9059 41.7335 96.2091 40.7561C98.5415 39.0068 98.2091 36.7561 99.7091 36.2561C101.058 35.8066 106.209 38.7561 100.709 39.7561C103.209 43.3537 106.587 43.3745 109.209 41.2561C112.605 38.5121 110.209 31.2561 103.709 30.7561L103.209 30.2561C102.709 23.7561 95.4532 21.3598 92.7092 24.756C90.5908 27.3779 90.6116 30.7559 94.2092 33.256C95.2092 27.7559 98.1587 32.9073 97.7092 34.2559Z" fill="#d5c990"/>
<path d="M37.4998 40.5C35.1674 38.7507 35.4998 36.5 33.9998 36C32.6512 35.5505 27.4998 38.5 32.9999 39.5C30.4998 43.0976 27.1218 43.1184 24.4999 41C21.1037 38.256 23.5 31 30 30.5L30.5 30C31 23.4999 38.256 21.104 41 24.5002C43.1184 27.1221 43.0976 30.5001 39.5 33.0002C38.5 27.5001 35.5505 32.6516 36 34.0001C36.5 35.5001 38.7507 35.1677 40.5 37.5001C41.4774 38.8033 40.5442 39.4697 39.7753 39.7758C39.4691 40.5446 38.8027 41.4772 37.4998 40.5Z" fill="#d5c990"/>
<path d="M37.4998 94.7087C35.1674 96.458 35.4998 98.7087 33.9998 99.2087C32.6512 99.6583 27.4998 96.7087 32.9999 95.7087C30.4998 92.1111 27.1218 92.0903 24.4999 94.2087C21.1037 96.9528 23.5 104.209 30 104.709L30.5 105.209C31 111.709 38.256 114.105 41 110.709C43.1184 108.087 43.0976 104.709 39.5 102.209C38.5 107.709 35.5505 102.557 36 101.209C36.5 99.7086 38.7507 100.041 40.5 97.7086C41.4774 96.4054 40.5442 95.739 39.7753 95.4329C39.4691 94.6641 38.8027 93.7316 37.4998 94.7087Z" fill="#d5c990"/>
<path d="M93.2092 97.4528C94.9585 99.7852 97.2092 99.4528 97.7092 100.953C98.1587 102.301 95.2092 107.453 94.2092 101.953C90.6116 104.453 90.5908 107.831 92.7092 110.453C95.4532 113.849 102.709 111.453 103.209 104.953L103.709 104.453C110.209 103.953 112.605 96.6966 109.209 93.9526C106.587 91.8342 103.209 91.855 100.709 95.4526C106.209 96.4526 101.058 99.4021 99.7091 98.9526C98.2091 98.4526 98.5415 96.2019 96.2091 94.4526C94.9059 93.4752 94.2395 94.4084 93.9334 95.1773C93.1646 95.4836 92.2321 96.1499 93.2092 97.4528Z" fill="#d5c990"/>
</g>
<circle opacity="0.6" cx="161" cy="162.5" r="19.5" stroke="#d5c990"/>
<circle opacity="0.6" cx="161" cy="162.5" r="38.5" stroke="#d5c990"/>
<circle cx="161" cy="162.5" r="32.5" stroke="#d5c990"/>
<circle opacity="0.4" cx="161" cy="162.5" r="11.5" stroke="#d5c990"/>
<circle cx="161" cy="162.5" r="6.5" stroke="#d5c990"/>
</g>
</svg>
