<svg viewBox="0 0 80 80" xmlns="http://www.w3.org/2000/svg">
    <path opacity=".6" fill="#d5c990" d="M40 36.59V24H38V36.59L29.1 27.69L27.69 29.1L36.59 38H24V40H36.59L27.69 48.9L29.1 50.31L38 41.41V54H40V41.41L48.9 50.31L50.31 48.9L41.41 40H54V38H41.41L50.31 29.1L48.9 27.69L40 36.59ZM0 0H2V2H0V0ZM0 4H2V6H0V4ZM0 8H2V10H0V8ZM0 12H2V14H0V12ZM0 16H2V18H0V16ZM0 20H2V22H0V20ZM0 24H2V26H0V24ZM0 28H2V30H0V28ZM0 32H2V34H0V32ZM0 36H2V38H0V36ZM0 40H2V42H0V40ZM0 44H2V46H0V44ZM0 48H2V50H0V48ZM0 52H2V54H0V52ZM0 56H2V58H0V56ZM0 60H2V62H0V60ZM0 64H2V66H0V64ZM0 68H2V70H0V68ZM0 72H2V74H0V72ZM0 76H2V78H0V76ZM4 76H6V78H4V76ZM8 76H10V78H8V76ZM12 76H14V78H12V76ZM16 76H18V78H16V76ZM20 76H22V78H20V76ZM24 76H26V78H24V76ZM28 76H30V78H28V76ZM32 76H34V78H32V76ZM36 76H38V78H36V76ZM40 76H42V78H40V76ZM44 76H46V78H44V76ZM48 76H50V78H48V76ZM52 76H54V78H52V76ZM56 76H58V78H56V76ZM60 76H62V78H60V76ZM64 76H66V78H64V76ZM68 76H70V78H68V76ZM72 76H74V78H72V76ZM76 76H78V78H76V76ZM4 0H6V2H4V0ZM8 0H10V2H8V0ZM12 0H14V2H12V0ZM16 0H18V2H16V0ZM20 0H22V2H20V0ZM24 0H26V2H24V0ZM28 0H30V2H28V0ZM32 0H34V2H32V0ZM36 0H38V2H36V0ZM40 0H42V2H40V0ZM44 0H46V2H44V0ZM48 0H50V2H48V0ZM52 0H54V2H52V0ZM56 0H58V2H56V0ZM60 0H62V2H60V0ZM64 0H66V2H64V0ZM68 0H70V2H68V0ZM72 0H74V2H72V0ZM76 0H78V2H76V0ZM76 4H78V6H76V4ZM76 8H78V10H76V8ZM76 12H78V14H76V12ZM76 16H78V18H76V16ZM76 20H78V22H76V20ZM76 24H78V26H76V24ZM76 28H78V30H76V28ZM76 32H78V34H76V32ZM76 36H78V38H76V36ZM76 40H78V42H76V40ZM76 44H78V46H76V44ZM76 48H78V50H76V48ZM76 52H78V54H76V52ZM76 56H78V58H76V56ZM76 60H78V62H76V60ZM76 64H78V66H76V64ZM76 68H78V70H76V68ZM76 72H78V74H76V72ZM4 4H74V74H4V4ZM6 72H72V6H6V72ZM8 8H70V70H8V8ZM10 68H68V10H10V68ZM12 28.4V12H28.4C24.6881 13.4633 21.3168 15.6742 18.4955 18.4955C15.6742 21.3168 13.4633 24.6881 12 28.4ZM14 14V20.67C15.8721 18.1212 18.1212 15.8721 20.67 14H14ZM12 66V49.6C13.4633 53.3119 15.6742 56.6832 18.4955 59.5045C21.3168 62.3258 24.6881 64.5367 28.4 66H12ZM14 57.33V64H20.67C18.1212 62.1279 15.8721 59.8788 14 57.33ZM66 66H49.6C53.3119 64.5367 56.6832 62.3258 59.5045 59.5045C62.3258 56.6832 64.5367 53.3119 66 49.6V66ZM57.33 64H64V57.33C62.1279 59.8788 59.8788 62.1279 57.33 64ZM66 12V28.4C64.5367 24.6881 62.3258 21.3168 59.5045 18.4955C56.6832 15.6742 53.3119 13.4633 49.6 12H66ZM64 20.67V14H57.33C59.8788 15.8721 62.1279 18.1212 64 20.67ZM38 12H40V14H38V12ZM45.02 12.66L46.95 13.18L46.44 15.11L44.5 14.59L45.02 12.66ZM51.63 15.12L53.37 16.12L52.37 17.85L50.63 16.85L51.63 15.12ZM57.38 19.2L58.8 20.62L57.38 22.02L55.98 20.62L57.38 19.2ZM61.88 24.63L62.88 26.37L61.15 27.37L60.15 25.63L61.88 24.63ZM64.82 31.05L65.34 32.98L63.41 33.5L62.89 31.56L64.82 31.05ZM66 38V40H64V38H66ZM65.34 45.02L64.82 46.95L62.89 46.44L63.41 44.5L65.34 45.02ZM62.88 51.63L61.88 53.37L60.15 52.37L61.15 50.63L62.88 51.63ZM58.8 57.38L57.38 58.8L55.98 57.38L57.38 55.98L58.8 57.38ZM53.37 61.88L51.63 62.88L50.63 61.15L52.37 60.15L53.37 61.88ZM40 66H38V64H40V66ZM46.95 64.82L45.02 65.34L44.5 63.41L46.44 62.89L46.95 64.82ZM32.98 65.34L31.05 64.82L31.56 62.89L33.5 63.41L32.98 65.34ZM26.37 62.88L24.63 61.88L25.63 60.15L27.37 61.15L26.37 62.88ZM20.62 58.8L19.2 57.38L20.62 55.98L22.02 57.38L20.62 58.8ZM16.12 53.37L15.12 51.63L16.85 50.63L17.85 52.37L16.12 53.37ZM13.18 46.95L12.66 45.02L14.59 44.5L15.11 46.44L13.18 46.95ZM12 40V38H14V40H12ZM12.66 32.98L13.18 31.05L15.11 31.56L14.59 33.5L12.66 32.98ZM15.12 26.37L16.12 24.63L17.85 25.63L16.85 27.37L15.12 26.37ZM19.2 20.62L20.62 19.2L22.02 20.62L20.62 22.02L19.2 20.62ZM24.63 16.12L26.37 15.12L27.37 16.85L25.63 17.85L24.63 16.12ZM31.05 13.18L32.98 12.66L33.5 14.59L31.56 15.11L31.05 13.18ZM39 62C35.9796 62 32.9888 61.4051 30.1983 60.2492C27.4078 59.0934 24.8723 57.3992 22.7365 55.2635C20.6008 53.1277 18.9066 50.5922 17.7508 47.8017C16.5949 45.0112 16 42.0204 16 39C16 35.9796 16.5949 32.9888 17.7508 30.1983C18.9066 27.4078 20.6008 24.8723 22.7365 22.7365C24.8723 20.6008 27.4078 18.9066 30.1983 17.7508C32.9888 16.5949 35.9796 16 39 16C45.1 16 50.9501 18.4232 55.2635 22.7365C59.5768 27.0499 62 32.9 62 39C62 45.1 59.5768 50.9501 55.2635 55.2635C50.9501 59.5768 45.1 62 39 62ZM39 60C44.5695 60 49.911 57.7875 53.8492 53.8492C57.7875 49.911 60 44.5695 60 39C60 33.4305 57.7875 28.089 53.8492 24.1508C49.911 20.2125 44.5695 18 39 18C33.4305 18 28.089 20.2125 24.1508 24.1508C20.2125 28.089 18 33.4305 18 39C18 44.5695 20.2125 49.911 24.1508 53.8492C28.089 57.7875 33.4305 60 39 60ZM39 58C33.9609 58 29.1282 55.9982 25.565 52.435C22.0018 48.8718 20 44.0391 20 39C20 33.9609 22.0018 29.1282 25.565 25.565C29.1282 22.0018 33.9609 20 39 20C44.0391 20 48.8718 22.0018 52.435 25.565C55.9982 29.1282 58 33.9609 58 39C58 44.0391 55.9982 48.8718 52.435 52.435C48.8718 55.9982 44.0391 58 39 58ZM39 56C43.5087 56 47.8327 54.2089 51.0208 51.0208C54.2089 47.8327 56 43.5087 56 39C56 34.4913 54.2089 30.1673 51.0208 26.9792C47.8327 23.7911 43.5087 22 39 22C34.4913 22 30.1673 23.7911 26.9792 26.9792C23.7911 30.1673 22 34.4913 22 39C22 43.5087 23.7911 47.8327 26.9792 51.0208C30.1673 54.2089 34.4913 56 39 56Z"/>
</svg>
