<svg width="78" height="78" viewBox="0 0 78 78" fill="none" xmlns="http://www.w3.org/2000/svg">
    <path opacity=".3" fill="#d5c990" fill-rule="evenodd" clip-rule="evenodd" d="M54 54C54 48.477 58.477 44 64 44C69.523 44 74 48.477 74 54C74 59.523 69.523 64 64 64C64 69.523 59.523 74 54 74C48.477 74 44 69.523 44 64C44 58.477 48.477 54 54 54ZM14 14C14 8.477 18.477 4 24 4C29.523 4 34 8.477 34 14C34 19.523 29.523 24 24 24C24 29.523 19.523 34 14 34C8.477 34 4 29.523 4 24C4 18.477 8.477 14 14 14ZM24 22C28.418 22 32 18.418 32 14C32 9.582 28.418 6 24 6C19.582 6 16 9.582 16 14C16 18.418 19.582 22 24 22ZM64 62C68.418 62 72 58.418 72 54C72 49.582 68.418 46 64 46C59.582 46 56 49.582 56 54C56 58.418 59.582 62 64 62Z"/>
</svg>
